<?xml version="1.0" encoding="iso-8859-1"?>
<!-- Generator: Adobe Illustrator 19.0.0, SVG Export Plug-In . SVG Version: 6.00 Build 0)  -->
<svg xmlns="http://www.w3.org/2000/svg" xmlns:xlink="http://www.w3.org/1999/xlink" version="1.1" id="Layer_1" x="0px" y="0px" viewBox="0 0 485 485" style="enable-background:new 0 0 485 485;" xml:space="preserve" width="512px" height="512px">
<g>
	<path d="M208.466,400l53.22-117.585h23.518V400h33.414V85h-59.173c-37.664,0-82.538,39.611-82.538,103.966   c0,64.365,56.312,90.354,56.312,90.354L166.381,400H208.466z M229.103,239.154c-8.224-10.335-15.384-27.524-15.384-56.06   c0-62.509,35.94-70.583,40.899-71.393c0.356-0.06,0.701-0.08,1.057-0.08h28.596v142.946h-22.249   C249.306,254.567,237.024,249.102,229.103,239.154z" fill="#FFFFFF"/>
	<path d="M0,0v485h485V0H0z M455,455H30V30h425V455z" fill="#FFFFFF"/>
</g>
<g>
</g>
<g>
</g>
<g>
</g>
<g>
</g>
<g>
</g>
<g>
</g>
<g>
</g>
<g>
</g>
<g>
</g>
<g>
</g>
<g>
</g>
<g>
</g>
<g>
</g>
<g>
</g>
<g>
</g>
</svg>
