<svg id="Layer_2" data-name="Layer 2" xmlns="http://www.w3.org/2000/svg" viewBox="0 0 1451.34 1451.34"><defs><style>.cls-1{fill:#fff;}</style></defs><title>icon-phone</title><path class="cls-1" d="M292,88.74,450.34,389.15l.12.23c-1.15,5.29-2.85,7.34-4.35,8.84L370.82,473.5c-10.9,10.9-19.21,24.78-24.7,41.26a115.29,115.29,0,0,0-6.41,36.82v7.55l1.41,7.42c5.58,29.3,17,60.41,35,95.11,14.37,28.62,35.09,61.51,63.35,100.49,28.4,39.2,66.78,82.31,117.29,131.77,49.39,50.45,92.7,89,132.39,118s72.53,49.87,100.61,64.2c31.35,16,55.49,25.37,76,29.47l19.2,3.84,7.77,1.56h7.93c11.1,0,22-2,35.27-6.41h.05c16.46-5.5,30.33-13.8,41.22-24.69l.25-.25.25-.25,85.1-86.59c3.08-2.4,5.65-3.17,9.95-3.17,1.85,0,3.24.08,4.23.16l15.09,9.06h1.84l270,159.46-195.36,193.88-1.6,1.59-1.51,1.68c-1,1.11-4.1,4.06-11.43,7.6a74.48,74.48,0,0,1-18,6.28c-2.31.19-5,.44-8.2.76-.89.09-4.37.38-12,.38-8.64,0-30.82-1.18-82.4-9.07-37-5.66-84.48-20.45-141.24-44-58.1-24.09-125.8-61.3-201.2-110.6-74.78-48.89-156.18-117.66-241.94-204.39l-.36-.37-.37-.36c-68.3-67.32-125.42-132.26-169.78-193-44.57-61-80.71-117.87-107.43-168.92-26.44-50.51-46.38-96.42-59.26-136.44C98.73,462.8,89.87,428.06,85.41,400c-5.52-34.76-5.68-51.93-5.28-59.07.79-14.19,1.2-22.22,1.42-27a76,76,0,0,1,6.11-17.14c3.54-7.33,6.49-10.43,7.59-11.42l1.56-1.41,1.49-1.49L292,88.74M295.25,0Q267.6,0,246.09,21.51L41.74,225.86Q26.38,239.68,15.62,262A149.34,149.34,0,0,0,1.79,305.75q0,3.07-1.54,30.73T6.4,412.53q7.68,48.4,29.19,115.23t64.53,149q43,82.2,113.7,179T392,1058.6q135.21,136.75,255,215.1t214.34,117.54q94.48,39.17,159.78,49.17t94.5,10q12.29,0,20-.77t9.23-.78a149.19,149.19,0,0,0,43.78-13.83q22.28-10.74,36.1-26.12l204.35-202.8q26.11-26.12,21.51-61.46-6.15-30.73-38.42-50.71L1115.7,918.78h-1.53q-15.36-9.22-41.48-9.22-36.88,0-64.53,24.58l-87.57,89.11q-3.08,3.08-10,5.38t-10,2.3l-19.2-3.84q-19.2-3.83-55.31-22.27t-89.88-57.61Q682.43,908,613.29,837.35q-70.68-69.14-109.09-122.14t-56.85-89.88q-21.51-41.48-27.66-73.75a37.91,37.91,0,0,1,2.3-11.52q2.3-6.91,5.38-10l75.29-75.29q20-20,26.12-49.17t-7.68-53.77L356.71,39.95a106.82,106.82,0,0,0-26.12-28.42A57.32,57.32,0,0,0,295.25,0Z"/></svg>