<svg id="Слой_1" data-name="Слой 1" xmlns="http://www.w3.org/2000/svg" viewBox="0 0 4251.97 1451.34"><defs><style>.cls-1,.cls-2{fill:#fff;}.cls-1{fill-rule:evenodd;}</style></defs><title>logo-svetopotolok</title><path class="cls-1" d="M1062.82,663.59A445.64,445.64,0,0,1,321,997a472.28,472.28,0,0,0,80.3,85.16A469.06,469.06,0,1,0,821,267.07a446.27,446.27,0,0,1,241.86,396.53ZM902.88,949.49Q892,960.36,880.33,970.4l-12.18-23.14,46.54-10.08q-5.78,6.28-11.8,12.31Zm74.62-102.71-16.17-87,48.88-1.81a402.11,402.11,0,0,1-32.71,88.8Zm40.38-130.49-64.21,2.37L933.09,607.9l87.23,27.52q1,14,1,28.17a406.77,406.77,0,0,1-3.41,52.69ZM617,1067.91a403.45,403.45,0,0,1-158-32l204.75-44.37,64.53,60.84A404.83,404.83,0,0,1,617,1067.91ZM772.3,1037l-59.48-56.08,113.3-24.55L847,996.13A402.93,402.93,0,0,1,772.3,1037ZM386.86,996.15a405.51,405.51,0,0,1-148-189q-1.92-10.31-3.4-20.64L438.31,779l188.8,178-225.5,48.86q-7.49-4.71-14.75-9.76Zm-12,117.91A510.27,510.27,0,0,1,198.41,816.43q-4.34-22.81-6.68-47.06l-.07-.67c-1.54-16.44-2.35-32.61-2.35-48.4A510.87,510.87,0,0,1,607.2,218.21c15-2.75,30.39-4.86,46-6.28h.08c15.95-1.43,31.5-2.18,46.55-2.18a510.55,510.55,0,1,1-325,904.31ZM615.29,259.22l1.7.08a402.53,402.53,0,0,1,221.43,66l41.34,222.29-266.1-84-93.09-176.9A466.41,466.41,0,0,1,613,259.24l2.26,0ZM902.88,377.7a403.47,403.47,0,0,1,111.74,212.41l-90.14-28.45-36.91-198.5q7.83,7.07,15.31,14.53ZM483,304.24l74.53,141.64L370,386.73a470.54,470.54,0,0,1,113-82.49ZM339.05,420.47,585,498.06,705.84,727.78,454.14,737,260.82,554.81a468.52,468.52,0,0,1,78.23-134.34Zm-92.27,178L396,739.19l-164.57,6.06q-.61-12.16-.61-24.95a470.27,470.27,0,0,1,15.94-121.81ZM806.07,918.26,676.21,946.41,496.41,776.9l230.8-8.5,78.85,149.86Zm-165-402.49,247.25,78,23.5,126.41-160.09,5.9L641.12,515.78Zm132,250.93,146.36-5.39,23.66,127.23-95.07,20.61-75-142.45ZM10.79,702.14l0,0c6.16-3.34,12.36-6.94,18.58-10.74,57.08-34.92,92-76.17,104.49-122.73s2.86-99.78-29.12-158.53C101.6,404.25,98,398,94,391.51a20.71,20.71,0,0,1,19.12-31.45q10.54.25,20.62,0c66.89-1.69,117.76-19.94,151.81-54l0,0,0,0c34.11-34.11,52.37-85,54.06-151.79.18-7,.18-14.22,0-21.56a20.69,20.69,0,0,1,31.46-18.15v0q9.79,6,18.58,10.77c58.78,32,112,41.61,158.59,29.12S636,106.93,671,49.83c3.81-6.22,7.41-12.44,10.75-18.59a20.68,20.68,0,0,1,36.36,0c3.35,6.16,7,12.38,10.75,18.6,34.9,57.08,76.16,92,122.69,104.47s99.78,2.86,158.53-29.11q8.83-4.79,18.63-10.8a20.71,20.71,0,0,1,31.45,19.12c-.16,7-.15,13.91,0,20.62,1.69,66.83,20,117.7,54.07,151.8l1,1c34.1,33.43,84.62,51.35,150.82,53,7,.18,14.21.18,21.57,0a20.69,20.69,0,0,1,18.15,31.45h0c-4,6.52-7.6,12.75-10.79,18.6-32,58.78-41.6,112-29.11,158.58s47.41,87.8,104.49,122.7c6.23,3.8,12.46,7.4,18.61,10.76a20.69,20.69,0,0,1,0,36.35c-6.16,3.35-12.38,7-18.59,10.75-57.08,34.9-92,76.16-104.48,122.7S1263,971.75,1295,1030.5c3.17,5.85,6.81,12.08,10.8,18.61a20.71,20.71,0,0,1-19.12,31.44c-7-.16-13.86-.16-20.53,0-66.87,1.68-117.76,20-151.88,54.08s-52.41,85-54.09,151.86c-.18,7-.18,14.17,0,21.49a20.69,20.69,0,0,1-31.45,18.15v0c-6.53-4-12.78-7.62-18.62-10.8-58.77-32-112-41.57-158.55-29.1s-87.8,47.4-122.69,104.47c-3.82,6.25-7.41,12.48-10.77,18.63a20.68,20.68,0,0,1-36.35,0c-3.34-6.16-6.95-12.36-10.74-18.58-34.92-57.09-76.18-92-122.73-104.49s-99.78-2.85-158.53,29.12c-5.86,3.19-12.09,6.8-18.61,10.79A20.71,20.71,0,0,1,339.61,1307q.25-10.54,0-20.62c-1.69-66.9-19.94-117.76-54-151.81l0,0,0,0c-34.11-34.11-85-52.37-151.79-54.06-7-.18-14.22-.18-21.56,0A20.69,20.69,0,0,1,94,1049.12h0c4-6.53,7.62-12.78,10.8-18.62,32-58.77,41.57-112,29.1-158.55s-47.4-87.8-104.47-122.69c-6.25-3.82-12.48-7.41-18.63-10.76a20.69,20.69,0,0,1,0-36.36l0,0ZM174,579.36c14.5-54.12,5.49-114-27.28-178.43,72.2-3.87,128.52-26,168.17-65.65l0,0c39.61-39.62,61.73-95.94,65.58-168.17C445,199.91,504.84,208.91,559,194.41s101.46-52.22,140.92-112.8c39.45,60.59,86.8,98.31,140.93,112.81s114,5.5,178.45-27.28c3.87,72.26,26,128.6,65.6,168.21l1.28,1.17c39.54,38.86,95.43,60.59,166.92,64.41-32.77,64.51-41.78,124.37-27.27,178.48S1278,680.87,1338.57,720.31c-60.59,39.45-98.3,86.81-112.8,140.94s-5.47,114,27.28,178.44c-72.26,3.86-128.6,26-168.21,65.61s-61.75,95.94-65.61,168.17c-64.5-32.75-124.34-41.77-178.46-27.27S739.31,1298.42,699.86,1359c-39.48-60.6-86.81-98.3-140.94-112.8s-114-5.49-178.43,27.28c-3.87-72.2-26-128.52-65.65-168.17l0,0c-39.6-39.6-96-61.72-168.19-65.59,32.75-64.5,41.78-124.34,27.27-178.45S121.75,759.75,61.17,720.3c60.61-39.48,98.3-86.81,112.8-140.94ZM718.05,31.24l0,0,0,0ZM1389,738.48l0,0,0,0ZM681.7,1409.37l0,0Z"/><path class="cls-1" d="M1668.66,145.62a20.76,20.76,0,0,1,41.52,0V1295a20.76,20.76,0,1,1-41.52,0Z"/><path class="cls-1" d="M3586.72,671.53h-39.34Q3442.94,840.29,3338.46,1009h39.35Z"/><path class="cls-1" d="M2124.84,1172.94c-2.92-20.77-21.1-29.86-38.62-29.86-13.14,0-26.77,5.19-34.4,15.09a30.68,30.68,0,0,0-6.17,21.57v-.16c1.79,23.69,22.56,27.58,40.24,29.37,11.37,1.13,23,2.59,25,11.2a18.28,18.28,0,0,1,.49,3.89c0,11.68-13.31,18.5-25.49,18.5-10.54,0-23.36-5.52-24.5-16.07v.65l-.16-2.44-16.56.33.16,3.08c2.11,20.27,23.37,30.66,40.89,30.66,20.44,0,42.19-12.65,42.19-34.57a40.65,40.65,0,0,0-.81-7.47c-4.38-18.17-23.69-22.22-39.27-24.18-12.17-1.13-25-2.59-25.8-14.27a14.87,14.87,0,0,1,2.75-10.55c4.55-5.84,13-8.44,20.62-8.61,9.89-.15,20.93,4.22,23.2,14.45l16.23-.66Zm78.07,56.31-33.75-85h-17.84l45.59,113.91h12l45.59-113.91H2237l-34.08,85Zm96.75-20h51.44v-16.55h-51.44v-32h52.57v-16.39h-69.13v113.42h69.29v-16.39h-52.74v-32.13Zm133.41,48.52v-98h34.24v-15.58h-85v15.58h34.4v98Zm153.7-56.8a42.09,42.09,0,0,1-41.87,42.19,42.19,42.19,0,0,1,0-84.38,42.11,42.11,0,0,1,41.87,42.19Zm-100.28,0a59.64,59.64,0,0,0,17,41.55,58.2,58.2,0,0,0,82.92,0,59.16,59.16,0,0,0,0-83.08,58.17,58.17,0,0,0-82.92,0,59.59,59.59,0,0,0-17,41.53Zm149.64-56.79v113.59h16.55V1220h25c24.5,0,36.83-18.82,36.83-37.81s-12.33-38-36.83-38Zm16.55,59.56v-43h25c13.8,0,20.6,10.7,20.6,21.58,0,10.7-6.81,21.42-20.6,21.42Zm191.83-2.76a42.09,42.09,0,0,1-41.87,42.19,42.19,42.19,0,0,1,0-84.38,42.11,42.11,0,0,1,41.87,42.19Zm-100.28,0a59.64,59.64,0,0,0,17,41.55,58.2,58.2,0,0,0,82.92,0,59.17,59.17,0,0,0,0-83.08,58.18,58.18,0,0,0-82.92,0,59.6,59.6,0,0,0-17,41.53Zm186.8,56.8v-98h34.24v-15.58h-85v15.58h34.39v98Zm153.7-56.8a42.09,42.09,0,0,1-41.87,42.19,42.19,42.19,0,0,1,0-84.38,42.11,42.11,0,0,1,41.87,42.19Zm-100.28,0a59.63,59.63,0,0,0,17,41.55,58.2,58.2,0,0,0,82.92,0,59.17,59.17,0,0,0,0-83.08,58.17,58.17,0,0,0-82.92,0,59.58,59.58,0,0,0-17,41.53Zm166.19-56.79h-16.39v113.59H3204v-15.9h-53.39v-97.69ZM3325.77,1201a42.08,42.08,0,0,1-41.87,42.19,42.19,42.19,0,0,1,0-84.38,42.11,42.11,0,0,1,41.87,42.19Zm-100.28,0a59.64,59.64,0,0,0,17,41.55,58.2,58.2,0,0,0,82.92,0,59.16,59.16,0,0,0,0-83.08,58.17,58.17,0,0,0-82.92,0,59.59,59.59,0,0,0-17,41.53Zm149.8-56.79v113.59h16.22V1144.22Zm19.31,61,43.33,52.57H3459l-47.87-57.11,43.32-56.47h-20.29L3394.59,1197v8.29Zm98.69,33.09a9.64,9.64,0,0,0-9.74,10.06c0,4.87,4.38,9.9,9.74,9.9a10.22,10.22,0,0,0,10.22-9.9c0-6-4.22-10.06-10.22-10.06Zm64.29-30.35,41.38,49.82h21.25l-35.86-42.67c19.47-3.41,29.37-18.67,29.37-34.73,0-18-12.33-36.19-37-36.19h-41.38v16.56h41.38c13.79,0,20.6,9.89,20.6,19.63,0,9.9-6.81,19.8-20.6,19.8h-19.14V1208Zm130.66,50.95c19.48,0,41.87-12,41.87-35v-79.51h-16.56v79.34c0,12.5-13.46,18.83-25.31,18.83-12,0-25.48-6.17-25.48-18.66v-79.51h-16.55v79.34C3646.21,1246.94,3668.27,1258.94,3688.23,1258.94Z"/><polygon class="cls-1" points="3213.96 227.71 3085.16 227.71 3053.15 227.71 2924.34 227.71 2924.34 259.71 3053.15 259.71 3053.15 566.56 3085.16 566.56 3085.16 259.71 3213.96 259.71 3213.96 227.71"/><rect class="cls-2" x="2682.47" y="380.62" width="190.49" height="32"/><rect class="cls-2" x="2682.47" y="534.55" width="190.49" height="32"/><rect class="cls-2" x="2682.47" y="227.71" width="190.49" height="32"/><path class="cls-1" d="M2427.37,534.56h118.28a60.44,60.44,0,1,0,0-120.88v-1H2427.35v-32h118.29a60.45,60.45,0,0,0,0-120.9H2427.37v-32h118.28a92.47,92.47,0,0,1,51.23,169.43,92.46,92.46,0,0,1-51.23,169.42H2427.37Z"/><path class="cls-1" d="M2202.73,227.71a169.47,169.47,0,0,1,166.39,137.43h-32.73a137.41,137.41,0,1,0,0,64h32.73a169.43,169.43,0,1,1-166.39-201.44Z"/><rect class="cls-2" x="2033.04" y="734.21" width="32.01" height="274.84"/><rect class="cls-2" x="2033.03" y="670.19" width="257.89" height="32.01"/><rect class="cls-2" x="2287.81" y="669.83" width="32.01" height="339.21"/><path class="cls-1" d="M2532.64,670a169.43,169.43,0,1,1-169.43,169.43A169.42,169.42,0,0,1,2532.64,670Zm0,32a137.42,137.42,0,1,0,137.41,137.42A137.43,137.43,0,0,0,2532.64,702Z"/><polygon class="cls-1" points="2995.34 669.85 2866.53 669.85 2834.52 669.85 2705.71 669.85 2705.71 701.86 2834.52 701.86 2834.52 1008.7 2866.53 1008.7 2866.53 701.86 2995.34 701.86 2995.34 669.85"/><path class="cls-1" d="M3168.41,670a169.43,169.43,0,1,0,169.43,169.43A169.43,169.43,0,0,0,3168.41,670Zm0,32A137.42,137.42,0,1,1,3031,839.44,137.43,137.43,0,0,1,3168.41,702Z"/><path class="cls-1" d="M3807.63,670a169.43,169.43,0,1,0,169.43,169.43A169.43,169.43,0,0,0,3807.63,670Zm0,32a137.42,137.42,0,1,1-137.41,137.42A137.43,137.43,0,0,1,3807.63,702Z"/><rect class="cls-2" x="2427.35" y="381.66" width="165.41" height="32"/><path class="cls-1" d="M3387,227.87A169.42,169.42,0,1,0,3556.47,397.3,169.42,169.42,0,0,0,3387,227.87Zm0,32A137.42,137.42,0,1,1,3249.62,397.3,137.43,137.43,0,0,1,3387,259.87Z"/><polygon class="cls-1" points="4048.58 816.13 4070.78 788.65 4165.44 671.52 4207.02 671.52 4112.35 788.65 4090.16 816.13 4251.97 1009.04 4210.4 1009.04 4048.58 816.13"/></svg>