<svg id="Layer_1" data-name="Layer 1" xmlns="http://www.w3.org/2000/svg" viewBox="0 0 260 60"><defs><style>.cls-1,.cls-2{fill:#fff;}.cls-2{fill-rule:evenodd;}</style></defs><title>logo-svetopotolok</title><rect class="cls-1" x="74.67" width="1.44" height="56.44"/><path class="cls-2" d="M114.68,5.38h0A24.44,24.44,0,0,1,139.11,29.8h0v0h0A24.44,24.44,0,0,1,114.7,54.26h-.07a24.46,24.46,0,0,1-5.94-.73,24.06,24.06,0,0,1-4-1.4h0A24.5,24.5,0,0,1,91.09,36.22l1.82-1.86H93l.52.12.42.08,7-.32a15.32,15.32,0,0,0,6.65-3.91h0A15.27,15.27,0,0,0,112,19.52h0v-.05h0a15.34,15.34,0,0,0-1.18-5.89h0c-.14-.33-.27-.63-.4-.88a15.31,15.31,0,0,0-1.82-2.84L107.69,9l.05-.14-.11-.12.7-2.52.06,0h0l.4-.11,0-.12.1.09.3-.07.87-.18h0a24.61,24.61,0,0,1,4.56-.43Zm-3,3.22,12.68,11.67L129,13.94A21.34,21.34,0,0,0,114.69,8.4h0a22,22,0,0,0-3,.19ZM132,17.21l-2,8.19,6.1,5.62q0-.59,0-1.19h0v0h0A21.32,21.32,0,0,0,132,17.21Zm3.31,18.44-8,.38-3.22,13a21.5,21.5,0,0,0,11.18-13.4ZM117.68,51l-8.75-4.58-2.35,3.2a21.46,21.46,0,0,0,8.05,1.59h.07a21.53,21.53,0,0,0,3-.21ZM103.83,48.3,106.22,45,95.54,39.44a21.52,21.52,0,0,0,8.29,8.85ZM108,33.92l6.56-.3,8-10.89-8-7.39a18.54,18.54,0,0,1,.47,4.13h0v.05h0a18.3,18.3,0,0,1-5.37,13h0A18.42,18.42,0,0,1,108,33.92Zm25.39-1.2-4.3-4-1,4.22,5.34-.26Zm-6.83-6.3-1.77-1.63-6.34,8.64,6.45-.31,1.66-6.71Zm-2.42,9.77-8,.38L110.74,44l10.19,5.34,3.25-13.15Zm-11.88.57-11.07.53a18.32,18.32,0,0,1-2.46.45L108,42.57Z"/><rect class="cls-1" x="154.13" width="1.44" height="56.44"/><path class="cls-2" d="M172.6,19a5.82,5.82,0,0,0,6.06,6c2.52,0,5.17-1.32,5.61-4.66h-3a2.52,2.52,0,0,1-2.63,1.91A3.07,3.07,0,0,1,175.72,19c0-2,1.17-3.29,2.94-3.29a2.48,2.48,0,0,1,2.58,1.74h3A5.28,5.28,0,0,0,178.66,13a5.85,5.85,0,0,0-6.06,6Zm22.71-2.28a3.63,3.63,0,0,0-3.68-3.63h-5V25h5.54a3.49,3.49,0,0,0,3.68-3.73,2.56,2.56,0,0,0-1.42-2.41,2.82,2.82,0,0,0,.93-2Zm-3.41,3.5c1.22,0,1.23,2,0,2H189.5v-2Zm-.51-4.42a1,1,0,0,1,0,1.91H189.5V15.84Zm14.15-2.7h-7.38V25h7.53V22.27h-4.53V20.19h4V17.51h-4V15.84h4.37v-2.7Zm4.49,2.7V25h3V15.84h2.89v-2.7h-8.78v2.7Zm19.15,3.23c0-8.17-12.12-8.17-12.12,0s12.12,8.19,12.12,0Zm-9,0a3,3,0,1,1,5.93,0,3,3,0,1,1-5.93,0Zm-37,10.4h-9.83V41.28h3.09v-9h3.65v9h3.09V29.46Zm14.42,5.93c0-8.17-12.13-8.17-12.13,0s12.13,8.19,12.13,0Zm-9,0a3,3,0,1,1,5.93,0,3,3,0,1,1-5.93,0Zm13-3.23v9.12h3V32.16h2.89v-2.7h-8.78v2.7Zm19.15,3.23c0,8.19-12.13,8.19-12.13,0s12.13-8.17,12.13,0Zm-9,0a3,3,0,1,0,5.93,0,3,3,0,1,0-5.93,0Zm15.77-1,3,6.92h3v-.44l-5.34-11.53h-1.3l-5.32,11.53v.44h3l3-6.92Zm18.94,1c0-8.17-12.13-8.17-12.13,0s12.13,8.19,12.13,0Zm-9,0a3,3,0,1,1,5.93,0,3,3,0,1,1-5.93,0Zm14.38,5.89V36.77a6.86,6.86,0,0,0,1.17-.07l2.6,4.58h3.36v-.47l-3.21-5.2c2.35-1.5,2.28-3.73,2.28-6.15h-3.11c0,2.21.15,4.48-2.87,4.48h-.22V29.46h-3.07V41.28Z"/><path class="cls-2" d="M.07,27.89l10.38-5L6,11.61l1.9-2.17,11.19,2.82L22.88.78,25.73.34l6.76,9.35L42.79,3.34l2.47,1.5-.84,11.51,12,1.75.93,2.74-8,8.28,8,9-1,2.69L44.81,42l.35,12.09-2.53,1.39L33.08,49l-7.51,9.5L22.75,58l-3.15-11.1L7.74,49.31,5.93,47.06l4.72-10.53L0,30.78l.07-2.89Zm13-2.68L4.33,29.43l8.08,4.36L20,29.3l-7-4.09ZM10.17,13.37l3.31,8.33.15.09,9.58,5.63,2.25-1.33,4.77-14L25,4.81l-3.28,9.91-1.93,1.06-9.58-2.41ZM41.8,7.77,33.36,13l-.06.17-3.55,10.4,11.39-6.73.66-9.05Zm11,13.08-9-1.31L38.12,36.17,42.93,39l0-.05,9.83-1-6.94-7.8,0-2.21,6.88-7.08ZM41.83,51,41.56,42,37,39.3l-2.37,6.89L41.83,51ZM25,54l6.29-8,.21-.63,2.69-7.82-7.7-4.52L22.43,45,25,54ZM10.19,45.49l9.31-1.92,4.14-12.14-.43-.25-9,5.31-4,9Zm29.58-24.1L28.14,28.26,27.56,30l7.7,4.53Z"/><path class="cls-2" d="M174.13,48.92v-3H176v3h.35v-3.3h-2.59v3.3Zm5.55,0V48.6h-2v-1.3h1.57V47h-1.57V45.94h1.91v-.32h-2.26v3.3Zm1.08,0V47.46h1a.93.93,0,0,0,1.06-.93c0-.55-.4-.91-1.06-.91h-1.39v3.3Zm0-3h1c.47,0,.74.22.74.61s-.27.6-.74.6h-1V45.94Zm5.17,3V48.6h-2v-1.3h1.57V47h-1.57V45.94h1.91v-.32h-2.26v3.3Zm1-2.87a1.81,1.81,0,0,0,0,2.44,1.69,1.69,0,0,0,2.37,0,1.8,1.8,0,0,0,0-2.44,1.68,1.68,0,0,0-2.37,0Zm.26,2.2a1.48,1.48,0,0,1,0-2,1.29,1.29,0,0,1,1.86,0,1.48,1.48,0,0,1,0,2,1.29,1.29,0,0,1-1.86,0Zm5,.72a1.66,1.66,0,0,0,1-.29v-.36a1.5,1.5,0,0,1-1,.33,1.32,1.32,0,0,1-1-.39,1.45,1.45,0,0,1,0-2,1.28,1.28,0,0,1,1-.4,1.68,1.68,0,0,1,.92.28v-.36a1.68,1.68,0,0,0-.92-.24,1.65,1.65,0,0,0-1.69,1.71A1.64,1.64,0,0,0,192.17,49Zm2.09-.06V46.15l1.09,1.44h.21l1.08-1.44v2.77H197v-3.3h-.34l-1.19,1.6-1.19-1.6h-.34v3.3Zm7,0v-3.3h-.35v3.3Zm-2,0c.74,0,1.18-.41,1.18-1a1,1,0,0,0-.32-.75,1.22,1.22,0,0,0-.87-.29h-.87V45.62H198v3.3Zm-.87-1.75h.84c.55,0,.86.26.86.72s-.32.72-.86.72h-.84V47.17ZM203.74,49a1.66,1.66,0,0,0,1-.29v-.36a1.5,1.5,0,0,1-1,.33,1.32,1.32,0,0,1-1-.39,1.45,1.45,0,0,1,0-2,1.28,1.28,0,0,1,1-.4,1.68,1.68,0,0,1,.92.28v-.36a1.68,1.68,0,0,0-.92-.24A1.65,1.65,0,0,0,202,47.27,1.64,1.64,0,0,0,203.74,49Zm1.34-.06h.13c.49,0,.75-.28.89-.84a6.65,6.65,0,0,0,.14-1.39l0-.75h1.38v3H208V45.62h-2.06l0,.9c0,.22,0,.41,0,.57s0,.33,0,.5a2.15,2.15,0,0,1-.08.42c-.1.36-.25.59-.56.59h-.13v.32Zm4,0,1-1.48h1v1.48h.35v-3.3H210c-.65,0-1,.35-1,.9a.86.86,0,0,0,.78.89l-1.07,1.52Zm.94-1.8c-.45,0-.72-.21-.72-.59s.26-.59.72-.59h1.11v1.18Zm2.57,1.8,1-1.48h1v1.48H215v-3.3h-1.48c-.65,0-1,.35-1,.9a.86.86,0,0,0,.78.89l-1.06,1.52Zm.94-1.8c-.45,0-.72-.21-.72-.59s.26-.59.72-.59h1.11v1.18ZM218.79,49a1.66,1.66,0,0,0,1-.29v-.36a1.5,1.5,0,0,1-1,.33,1.32,1.32,0,0,1-1-.39,1.45,1.45,0,0,1,0-2,1.28,1.28,0,0,1,1-.4,1.68,1.68,0,0,1,.92.28v-.36a1.68,1.68,0,0,0-.92-.24,1.65,1.65,0,0,0-1.69,1.71A1.64,1.64,0,0,0,218.79,49Zm3.32-.06c.67,0,1.08-.37,1.08-.92a.83.83,0,0,0-.72-.88.69.69,0,0,0,.43-.7c0-.49-.36-.8-.95-.8h-1.43v3.3Zm-1.23-1.6H222c.49,0,.77.24.77.64s-.28.65-.77.65h-1.16V47.32Zm0-1.39h1c.42,0,.66.19.66.55s-.24.53-.66.53h-1V45.94Zm5.45,3V48.6h-2v-1.3h1.57V47h-1.57V45.94h1.91v-.32H224v3.3Zm1.92,0v-3h1.15v-.32h-2.63v.32h1.14v3Z"/></svg>