<?xml version="1.0" encoding="iso-8859-1"?>
<!-- Generator: Adobe Illustrator 19.0.0, SVG Export Plug-In . SVG Version: 6.00 Build 0)  -->
<svg xmlns="http://www.w3.org/2000/svg" xmlns:xlink="http://www.w3.org/1999/xlink" version="1.1" id="Capa_1" x="0px" y="0px" viewBox="0 0 512.01 512.01" style="enable-background:new 0 0 512.01 512.01;" xml:space="preserve" width="512px" height="512px">
<g>
	<g>
		<path d="M264.741,2.602c-4.544-2.976-10.272-3.424-15.232-1.216l-144,64c-5.792,2.592-9.504,8.288-9.504,14.624v320    c0,5.408,2.72,10.464,7.296,13.408c2.624,1.728,5.664,2.592,8.704,2.592c2.208,0,4.416-0.48,6.496-1.376l144-64    c5.792-2.56,9.504-8.32,9.504-14.624v-320C272.005,10.602,269.285,5.578,264.741,2.602z M240.005,325.61l-112,49.792V90.41    l112-49.76V325.61z" fill="#FFFFFF"/>
	</g>
</g>
<g>
	<g>
		<path d="M408.741,98.602c-4.544-2.976-10.272-3.424-15.232-1.216l-144,64c-5.792,2.592-9.504,8.288-9.504,14.624v320    c0,5.408,2.72,10.464,7.296,13.408c2.624,1.728,5.664,2.592,8.704,2.592c2.208,0,4.416-0.48,6.496-1.376l144-64    c5.792-2.56,9.504-8.32,9.504-14.624v-320C416.005,106.602,413.285,101.578,408.741,98.602z M384.005,421.61l-112,49.792V186.41    l112-49.76V421.61z" fill="#FFFFFF"/>
	</g>
</g>
<g>
	<g>
		<path d="M407.781,242.058l-144-80.032c-4.896-2.688-10.752-2.72-15.552,0l-144,80c-5.056,2.816-8.224,8.16-8.224,13.984    c0,5.824,3.168,11.168,8.224,14.016l144,80c2.432,1.312,5.12,1.984,7.776,1.984c2.688,0,5.344-0.672,7.776-1.984l144-79.968    c5.056-2.848,8.224-8.192,8.224-14.016C416.005,250.218,412.837,244.874,407.781,242.058z M256.005,317.706l-111.04-61.696    l111.04-61.696l111.072,61.728L256.005,317.706z" fill="#FFFFFF"/>
	</g>
</g>
<g>
</g>
<g>
</g>
<g>
</g>
<g>
</g>
<g>
</g>
<g>
</g>
<g>
</g>
<g>
</g>
<g>
</g>
<g>
</g>
<g>
</g>
<g>
</g>
<g>
</g>
<g>
</g>
<g>
</g>
</svg>
